<svg width="763" height="35" viewBox="0 0 763 35" fill="none" xmlns="http://www.w3.org/2000/svg">
<path d="M1.05147 20.8402C40.9202 70.0463 72.7443 -36.3646 102.554 16.4384" stroke="black"/>
<path d="M74.6527 20.5703C114.521 69.7763 146.345 -36.6346 176.156 16.1685" stroke="black"/>
<path d="M147.653 20.8402C187.521 70.0463 219.345 -36.3646 249.156 16.4384" stroke="black"/>
<path d="M221.254 20.5703C261.123 69.7763 292.947 -36.6346 322.757 16.1685" stroke="black"/>
<path d="M294.051 20.8402C333.92 70.0463 365.744 -36.3646 395.554 16.4384" stroke="black"/>
<path d="M367.653 20.5703C407.521 69.7763 439.345 -36.6346 469.156 16.1685" stroke="black"/>
<path d="M440.653 20.8402C480.521 70.0463 512.345 -36.3646 542.156 16.4384" stroke="black"/>
<path d="M514.254 20.5703C554.123 69.7763 585.947 -36.6346 615.757 16.1685" stroke="black"/>
<path d="M587.051 20.8402C626.92 70.0463 658.744 -36.3646 688.554 16.4384" stroke="black"/>
<path d="M661.051 20.5703C700.92 69.7763 732.744 -36.6346 762.554 16.1685" stroke="black"/>
</svg>
